<?xml version="1.0" standalone="no"?>
<!DOCTYPE svg PUBLIC "-//W3C//DTD SVG 20010904//EN"
 "http://www.w3.org/TR/2001/REC-SVG-20010904/DTD/svg10.dtd">
<svg version="1.0" xmlns="http://www.w3.org/2000/svg"
 width="191.000000pt" height="191.000000pt" viewBox="0 0 191.000000 191.000000"
 preserveAspectRatio="xMidYMid meet">
<metadata>
Created by potrace 1.11, written by Peter Selinger 2001-2013
</metadata>
<g transform="translate(0.000000,191.000000) scale(0.100000,-0.100000)"
fill="#000000" stroke="none">
<path d="M755 1900 c-3 -5 -24 -10 -46 -10 -21 0 -39 -4 -39 -10 0 -5 -16 -10
-35 -10 -19 0 -35 -4 -35 -10 0 -5 -9 -10 -19 -10 -10 0 -21 -7 -25 -15 -3 -8
-15 -15 -26 -15 -11 0 -20 -4 -20 -10 0 -5 -11 -10 -25 -10 -14 0 -25 -4 -25
-10 0 -5 -8 -10 -18 -10 -10 0 -24 -9 -32 -20 -8 -11 -21 -20 -28 -20 -18 0
-202 -185 -202 -203 0 -8 -11 -23 -25 -33 -14 -10 -25 -27 -25 -36 0 -10 -4
-18 -10 -18 -5 0 -10 -11 -10 -25 0 -14 -4 -25 -10 -25 -5 0 -10 -9 -10 -20 0
-11 -4 -20 -10 -20 -5 0 -10 -9 -10 -20 0 -11 -7 -23 -15 -26 -9 -4 -15 -19
-15 -35 0 -16 -4 -29 -10 -29 -5 0 -10 -20 -10 -45 0 -25 -4 -45 -10 -45 -6 0
-10 -73 -10 -200 0 -127 4 -200 10 -200 6 0 10 -20 10 -45 0 -25 5 -45 10 -45
6 0 10 -11 10 -25 0 -26 31 -65 52 -65 10 0 10 -2 0 -8 -9 -7 -8 -13 8 -27 16
-14 19 -26 15 -47 -4 -17 -2 -28 4 -28 6 0 11 -8 11 -18 0 -9 11 -26 25 -36
14 -10 25 -25 25 -33 0 -22 177 -193 200 -193 11 0 20 -5 20 -11 0 -17 27 -39
49 -39 12 0 21 -4 21 -10 0 -5 9 -10 20 -10 11 0 20 -4 20 -10 0 -5 9 -10 20
-10 11 0 20 -4 20 -10 0 -5 11 -12 25 -16 14 -3 25 -10 25 -15 0 -5 16 -9 35
-9 19 0 35 -4 35 -10 0 -5 20 -10 45 -10 25 0 45 -4 45 -10 0 -6 72 -10 195
-10 123 0 195 4 195 10 0 6 20 10 45 10 25 0 45 5 45 10 0 6 16 10 35 10 19 0
35 5 35 10 0 6 9 10 20 10 11 0 20 4 20 9 0 11 56 41 77 41 7 0 13 5 13 10 0
6 9 10 21 10 22 0 49 22 49 39 0 6 9 11 20 11 24 0 200 170 200 193 0 8 11 23
25 33 14 10 25 27 25 36 0 10 5 18 11 18 7 0 9 9 6 21 -3 13 0 22 10 26 10 4
13 14 9 34 -3 16 -1 29 4 29 6 0 10 -5 10 -11 0 -5 5 -7 10 -4 6 3 10 15 10
26 0 10 5 19 10 19 6 0 10 14 10 30 0 17 5 30 10 30 6 0 10 20 10 45 0 25 5
45 10 45 6 0 10 73 10 200 0 127 -4 200 -10 200 -5 0 -10 20 -10 45 0 25 -4
45 -10 45 -5 0 -10 13 -10 29 0 16 -6 31 -15 35 -8 3 -15 15 -15 26 0 11 -4
20 -10 20 -5 0 -10 9 -10 20 0 11 -4 20 -10 20 -5 0 -10 11 -10 25 0 14 -4 25
-10 25 -5 0 -10 8 -10 18 0 9 -11 26 -25 36 -14 10 -25 25 -25 33 0 17 -186
203 -203 203 -7 0 -19 9 -27 20 -8 11 -25 20 -37 20 -13 0 -23 5 -23 10 0 6
-9 10 -19 10 -10 0 -21 7 -25 15 -3 8 -15 15 -26 15 -11 0 -20 5 -20 10 0 6
-9 10 -20 10 -11 0 -20 5 -20 10 0 6 -16 10 -35 10 -19 0 -35 5 -35 10 0 6
-18 10 -40 10 -22 0 -40 5 -40 10 0 6 -73 10 -199 10 -123 0 -202 -4 -206 -10z"/>
</g>
</svg>
